<svg xmlns="http://www.w3.org/2000/svg" xmlns:xlink="http://www.w3.org/1999/xlink" id="Group_4" data-name="Group 4" width="1700.331" height="375.32" viewBox="0 0 1700.331 375.32"><defs><clipPath id="clip-path"><rect id="Rectangle_3" data-name="Rectangle 3" width="1700.331" height="375.32" fill="none"></rect></clipPath></defs><g id="Group_3" data-name="Group 3" clip-path="url(#clip-path)"><path id="Path_3484" data-name="Path 3484" d="M83.941,833.994v374.74H130.7V1043.546H191.09v-40.412H130.7V874.441h67.2V833.994Z" transform="translate(-83.941 -833.414)" fill="#fff"></path><path id="Path_3485" data-name="Path 3485" d="M254.051,882.337l18.025,188.858H236.027ZM220.942,833.51l-44.326,374.74h46.758l9.257-96.644h42.857l9.257,96.644h48.7L288.157,833.51Z" transform="translate(-67.035 -833.51)" fill="#fff"></path><path id="Path_3486" data-name="Path 3486" d="M353.286,833.51l-29.207,29.6v315.55l29.207,29.587h72.081l29.224-29.587v-84.808H407.849v64.1l-9.747,9.867H380.568l-9.73-9.867V882.815l9.73-9.851H398.1l9.747,9.851v64.612h46.741V863.113l-29.224-29.6Z" transform="translate(-40.133 -833.51)" fill="#fff"></path><path id="Path_3487" data-name="Path 3487" d="M445.584,833.994v39.438h44.309v335.3h46.758v-335.3h44.327V833.994Z" transform="translate(-17.967 -833.414)" fill="#fff"></path><path id="Path_3488" data-name="Path 3488" d="M621.262,1157.953V883.807l9.747-9.851H657.8l9.73,9.851V1157.97l-9.73,9.868H631.009l-9.747-9.868ZM603.728,833.51l-29.225,29.6v315.55l29.225,29.587h81.337l29.224-29.587V863.114l-29.224-29.6Z" transform="translate(5.551 -833.51)" fill="#fff"></path><path id="Path_3489" data-name="Path 3489" d="M765.428,872.964h34.088l9.748,9.851V1000.17l-9.748,9.851H765.428ZM718.652,833.51v374.74h46.776V1048.5h19.966l28.751,159.75h45.289l-29.207-163.205,25.811-26.132v-155.8l-29.258-29.6Z" transform="translate(31.848 -833.51)" fill="#fff"></path><path id="Path_3490" data-name="Path 3490" d="M957.447,833.51l-29.24,183.933L898.983,833.51H848.829L905.3,1085.474V1208.25h45.8V1085.474l56.488-251.964Z" transform="translate(55.596 -833.51)" fill="#fff"></path><path id="Path_3491" data-name="Path 3491" d="M1103.567,1158.437v-113.4l9.732-9.884h33.6v123.289l-9.731,9.851H1113.3Zm-17.532-324.443-29.242,29.587v121.8l29.242,29.569-29.242,29.587V1179.13l29.242,29.6h78.415l29.206-29.6V1035.148h23.377V994.736H1113.3l-9.732-9.885V884.291l9.732-9.851h23.873l9.731,9.851v43.389h46.753v-64.1l-29.206-29.587Z" transform="translate(93.535 -833.414)" fill="#fff"></path><path id="Path_3492" data-name="Path 3492" d="M1301.763,833.994l-29.242,29.587v315.566l29.242,29.587h72.069l29.23-29.587v-84.808h-46.777v64.1l-9.731,9.867h-17.535l-9.743-9.867V883.3l9.743-9.867h17.535l9.731,9.867v64.595h46.777V863.581l-29.23-29.587Z" transform="translate(132.889 -833.414)" fill="#fff"></path><path id="Path_3493" data-name="Path 3493" d="M1451.083,1157.856V883.709l9.755-9.851h26.782l9.731,9.851v274.164l-9.731,9.867h-26.782l-9.755-9.867Zm-17.536-323.862-29.206,29.587V1179.13l29.206,29.6h81.327l28.52-28.869v-317l-28.52-28.869Z" transform="translate(156.937 -833.414)" fill="#fff"></path></g></svg>